<svg width="32" height="32" viewBox="0 0 32 32" fill="none" xmlns="http://www.w3.org/2000/svg">
<g clip-path="url(#clip0_1_2)">
<path fill-rule="evenodd" clip-rule="evenodd" d="M16.5252 6.01385C21.8037 6.28698 26 10.6535 26 16C26 16.7778 25.907 17.5339 25.739 18.2606C25.5367 16.9579 24.9506 15.7829 24.0995 14.8538C23.6384 11.5657 21.2254 8.90387 18.0677 8.0816C19.0242 9.5192 19.7196 11.1118 20.127 12.7849C19.8473 12.7484 19.5623 12.7274 19.2726 12.7274C18.9262 12.7274 18.5861 12.7544 18.2542 12.8063C17.8032 11.185 17.0402 9.65939 16 8.31916C14.4822 10.2747 13.5534 12.6249 13.325 15.0913H14.238C13.2951 16.2254 12.7274 17.6825 12.7274 19.2726C12.7274 22.5432 15.1264 25.2524 18.2606 25.739C17.5339 25.907 16.7778 26 16 26C10.4774 26 6 21.5226 6 16C6 10.4809 10.4716 6.00575 15.9894 6L16.5252 6.01385ZM7.86854 16.9087C8.24404 20.3056 10.6989 23.0764 13.9322 23.9184C12.5444 21.8325 11.704 19.4206 11.5002 16.9087H7.86854ZM13.9322 8.0816C10.6989 8.92357 8.24404 11.6944 7.86854 15.0913H11.5002C11.704 12.5794 12.5445 10.1675 13.9322 8.0816Z" fill="white"/>
<path fill-rule="evenodd" clip-rule="evenodd" d="M18.0219 14.091C18.3786 14.0926 18.7109 14.2744 18.9051 14.5736L20.0375 16.3174L20.3432 14.9241C20.4496 14.4383 20.8794 14.0921 21.3766 14.0921H21.5055C21.8876 14.0922 22.2396 14.2981 22.427 14.6311L25.0039 19.2129C25.2502 19.6509 25.1544 20.2015 24.7749 20.5308L20.4817 24.2539C20.2902 24.42 20.0449 24.5109 19.7914 24.5117L19.6667 24.5128C18.9983 24.515 18.4949 23.904 18.6249 23.2483L18.6899 22.9149L17.2837 24.2273C17.0871 24.4106 16.8281 24.5125 16.5593 24.5117L16.2365 24.5107C15.5669 24.5083 15.0677 23.8921 15.2042 23.2366L16.9374 14.9326C17.0404 14.4406 17.4746 14.0889 17.9772 14.091H18.0219ZM17.0291 22.2853L20.1344 19.3919L18.2414 16.4751L17.0291 22.2853ZM21.2562 18.1956L21.7143 18.9008C21.9939 19.3315 21.9247 19.9014 21.5492 20.2516L20.682 21.0581L20.4647 22.1585L23.4017 19.6124L21.6344 16.4698L21.2562 18.1956Z" fill="white"/>
</g>
<defs>
<clipPath id="clip0_1_2">
<rect width="20" height="20" fill="white" transform="translate(6 6)"/>
</clipPath>
</defs>
</svg>
