<svg xmlns="http://www.w3.org/2000/svg" viewBox="0 0 150 150"><defs><style>.cls-1{fill:#343f49;}.cls-2{fill:#fff;}.cls-3{fill:#f8991d;}</style></defs><g id="Layer_2" data-name="Layer 2"><g id="Layer_1-2" data-name="Layer 1"><circle class="cls-1" cx="75" cy="75" r="75"/><path class="cls-2" d="M110.64,70.61q2.76-7.92,5.51-15.82c1.17-3.34,2.32-6.68,3.51-10,.47-1.33.82-1.54,2.22-1.55h2.31c.47,0,.93,0,1.4,0,.66,0,.92.35.82,1a4.48,4.48,0,0,1-.29,1q-7.5,19.09-15,38.19a16.73,16.73,0,0,1-2.89,4.92,8.44,8.44,0,0,1-6.14,2.9,13.92,13.92,0,0,1-4.72-.41A1.61,1.61,0,0,1,96,89.1c0-.7,0-1.4,0-2.1,0-.87.38-1.2,1.23-1.1a17.89,17.89,0,0,0,3.35.19,5,5,0,0,0,4.21-2.5,41.61,41.61,0,0,0,2.57-6.17c.13-.3,0-.54-.13-.8Q100.92,61.17,94.66,45.7a7.47,7.47,0,0,1-.48-1.45.75.75,0,0,1,.81-1c1.52,0,3,0,4.55,0,.93,0,1.34.63,1.62,1.4.75,2.06,1.5,4.11,2.24,6.17L110.32,70C110.4,70.19,110.42,70.44,110.64,70.61Z"/><path class="cls-3" d="M66.81,119.16a79.06,79.06,0,0,1-38.59-13.37A80.57,80.57,0,0,1,19.56,99a2.41,2.41,0,0,1-.37-.41.92.92,0,0,1,1.07-1.44,5.36,5.36,0,0,1,1,.49,105.45,105.45,0,0,0,28.22,11,109.81,109.81,0,0,0,19.85,2.77,106,106,0,0,0,45.56-8,3.68,3.68,0,0,1,1.26-.38,1.75,1.75,0,0,1,1.68.93,1.47,1.47,0,0,1-.52,1.81c-.91.71-1.87,1.38-2.85,2a72.3,72.3,0,0,1-22.76,9.39,80.1,80.1,0,0,1-14.37,2.11c-.13,0-5.95.1-6.36.06C70.73,119.33,67.39,119.21,66.81,119.16Z"/><path class="cls-3" d="M116.38,99.21a78.55,78.55,0,0,0-7.95.61c-.44.05-1,.23-1.2-.37s.25-.91.65-1.2a16.8,16.8,0,0,1,5.87-2.54,24.83,24.83,0,0,1,11.5-.12l.2,0c1.65.48,2,1,2.06,2.68a19.9,19.9,0,0,1-.83,5.52,22.35,22.35,0,0,1-5,9.48,15.11,15.11,0,0,1-1.43,1.34.94.94,0,0,1-1.21.19c-.41-.31-.21-.77-.06-1.16a73.09,73.09,0,0,0,2.88-8.24,12,12,0,0,0,.53-3.86,1.82,1.82,0,0,0-1.56-2A14.74,14.74,0,0,0,116.38,99.21Z"/><path class="cls-2" d="M56.45,51.13c-1.54-4.41-4.51-7.48-9.2-8.55a15.32,15.32,0,0,0-10.83,1.58,21.19,21.19,0,0,0-3.64,2.49c-.14-.8-.24-1.51-.38-2.21A1.32,1.32,0,0,0,31,43.23c-.94,0-1.87,0-2.8,0-1.1,0-1.49.39-1.49,1.47V89c0,1.12.39,1.5,1.53,1.52s2.19,0,3.29,0c1.44,0,1.75-.32,1.75-1.78v-15c.12,0,.17,0,.2.07l.44.35A14.61,14.61,0,0,0,46.21,77.3c5.08-.93,8.35-4.19,10.1-8.91A24.88,24.88,0,0,0,56.45,51.13Zm-6.3,15.49c-1.27,3.86-4.09,5.66-8.22,5.63a14.42,14.42,0,0,1-8.42-3c-.3-.21-.28-.45-.28-.73V59.89c0-2.92,0-5.83,0-8.75a1,1,0,0,1,.48-.9,14.66,14.66,0,0,1,8.73-2.69c3.86.1,6.44,1.82,7.67,5.47A21.25,21.25,0,0,1,50.15,66.62Z"/><path class="cls-2" d="M89.7,50.76a8.61,8.61,0,0,0-7-8,26.23,26.23,0,0,0-9-.35,27.36,27.36,0,0,0-7.45,1.77c-1.23.51-1.46.83-1.47,2.15,0,.46,0,.93,0,1.39,0,1.44.38,1.71,1.74,1.3a31.47,31.47,0,0,1,11.72-1.51c3.48.28,5.09,1.89,5.33,5.35.11,1.51,0,3,.06,4.54,0,.91,0,.9-.88.7a28,28,0,0,0-11-.62,11.5,11.5,0,0,0-6.81,3.56,10,10,0,0,0-2.3,8.54,8.56,8.56,0,0,0,6.25,7.48c4,1.25,7.78.53,11.43-1.32a19.78,19.78,0,0,0,3.54-2.38c.13.83.22,1.49.34,2.16a1.32,1.32,0,0,0,1.53,1.28h2.38c1.43,0,1.72-.3,1.72-1.73V53.49C89.82,52.58,89.79,51.67,89.7,50.76ZM83,69.77a15.9,15.9,0,0,1-8,3,7.82,7.82,0,0,1-2.16-.15,4.49,4.49,0,0,1-3.73-4.37c-.24-3.7,1.6-5.9,5.33-6.34a27.11,27.11,0,0,1,8.75.63c.35.08.45.22.44.56,0,1,0,2,0,2.94s0,1.77,0,2.65A1.14,1.14,0,0,1,83,69.77Z"/></g></g></svg>