<svg xmlns="http://www.w3.org/2000/svg" viewBox="0 0 100 100" xmlns:v="https://vecta.io/nano"><circle cx="50" cy="50.01" r="44.63" fill="#343f49"/><path d="M70.79 44.36l3.06-8.79 1.95-5.56c.26-.74.46-.86 1.24-.86h1.28l.78.01c.37.02.51.19.46.56a2.75 2.75 0 0 1-.16.56L71.05 51.5c-.39.99-.9 1.92-1.6 2.73-.9 1.04-2.06 1.53-3.41 1.62-.88.05-1.76.01-2.62-.23-.55-.16-.75-.4-.77-.97v-1.17c.02-.48.21-.67.69-.61.62.08 1.23.14 1.86.1 1.01-.07 1.8-.51 2.34-1.39.65-1.07.97-2.28 1.43-3.43.07-.17-.02-.3-.08-.44l-6.96-17.18a4.53 4.53 0 0 1-.27-.81c-.07-.35.09-.56.45-.56h2.53c.51.01.74.35.9.78l1.24 3.43 3.85 10.65c.02.11.03.25.16.34z" fill="#fff"/><path d="M46.43 71.34c-7.8-.61-14.95-3.07-21.45-7.43-1.69-1.14-3.28-2.4-4.81-3.75a1.15 1.15 0 0 1-.21-.23c-.13-.2-.18-.41-.03-.62.16-.23.39-.26.62-.19.19.06.38.17.55.27 4.93 2.81 10.17 4.82 15.68 6.12a61.16 61.16 0 0 0 11.03 1.54c8.78.41 17.2-1.15 25.31-4.47.23-.09.45-.2.7-.21.41-.01.79.19.93.51.15.34.07.73-.28 1.01a19.74 19.74 0 0 1-1.59 1.12c-3.9 2.51-8.15 4.15-12.65 5.22-2.63.62-5.29 1.02-7.99 1.17l-3.54.03c-.09.01-1.95-.06-2.27-.09zm27.55-11.08c-1.48 0-2.95.19-4.42.34-.25.02-.56.13-.67-.21-.1-.31.14-.51.36-.67.99-.7 2.09-1.14 3.26-1.41 2.12-.5 4.26-.57 6.39-.07.04.01.08.01.11.02.91.27 1.13.54 1.14 1.49.01 1.04-.18 2.06-.46 3.06-.55 1.96-1.39 3.76-2.79 5.27a9.12 9.12 0 0 1-.79.74c-.19.16-.45.28-.68.11s-.11-.43-.03-.64l1.6-4.58c.18-.7.35-1.41.29-2.15-.05-.65-.24-.88-.87-1.08-.78-.24-1.62-.22-2.44-.22z" fill="#f8991d"/><path d="M40.67 33.54c-.85-2.45-2.51-4.16-5.11-4.75-2.1-.48-4.12-.13-6.02.87a11.93 11.93 0 0 0-2.02 1.39l-.21-1.23c-.09-.46-.33-.67-.81-.68-.52-.01-1.04-.01-1.56 0-.61 0-.83.21-.83.82v24.62c0 .62.22.83.85.84h1.83c.8 0 .97-.18.97-.99v-8.32c.07.02.09.02.11.04l.24.19c2.02 1.64 4.34 2.19 6.85 1.73 2.83-.52 4.64-2.33 5.61-4.95 1.2-3.16 1.21-6.39.1-9.58zm-3.5 8.61c-.7 2.14-2.27 3.14-4.57 3.13-1.75-.01-3.28-.65-4.68-1.65-.16-.12-.15-.25-.15-.4v-4.82l-.01-4.86a.51.51 0 0 1 .27-.5c1.47-.99 3.06-1.55 4.85-1.5 2.14.06 3.58 1.01 4.26 3.04.84 2.5.85 5.06.03 7.56zm21.98-8.81c-.24-2.31-1.62-3.89-3.88-4.43-1.66-.4-3.34-.37-5.02-.19-1.42.15-2.81.44-4.14.98-.69.28-.81.46-.82 1.19v.78c0 .8.21.94.97.72 2.12-.64 4.28-1.01 6.51-.83 1.93.15 2.83 1.05 2.96 2.97.06.84.03 1.69.03 2.53 0 .5 0 .5-.49.39-2.01-.44-4.03-.71-6.09-.35-1.47.26-2.77.85-3.78 1.98-1.23 1.36-1.53 2.99-1.28 4.75.3 2.09 1.45 3.52 3.47 4.16 2.21.69 4.33.29 6.35-.74.69-.35 1.32-.8 1.96-1.32l.19 1.2c.09.52.32.7.85.71h1.32c.79 0 .95-.16.95-.96V34.86a12.71 12.71 0 0 0-.06-1.52zM55.43 43.9c-1.35.93-2.82 1.52-4.46 1.64-.4.03-.81 0-1.2-.08-1.24-.26-1.99-1.15-2.07-2.43-.13-2.06.89-3.28 2.96-3.52 1.64-.2 3.26.02 4.86.35.2.04.25.12.24.31v1.63l.01 1.48c.01.29-.1.46-.34.62z" fill="#fff"/></svg>