<svg xmlns="http://www.w3.org/2000/svg" width="256" height="218" preserveAspectRatio="xMidYMid"><path d="M233 42c-26-14-58-6-73 20l-36 63c-11 19 3 25 18 34l35 21c12 7 28 2 35-10l37-65c13-22 6-50-16-63Z" fill="#EA4335"/><path d="m191 69-36-21c-19-11-30-11-38 1l-52 91c-15 25-6 57 19 72 22 12 50 5 63-17l53-92c7-12 3-28-9-34Z" fill="#FBBC04"/><path d="M198 22 173 8c-28-16-63-7-79 21l-47 82c-7 12-3 27 9 34l28 16c14 8 31 4 39-10l54-94c12-19 36-26 56-15l-35-20Z" fill="#34A853"/><path d="M101 52 74 37c-12-7-27-3-34 9L8 102c-16 27-7 62 21 78l20 12 25 14 11 6a44 44 0 0 1-14-58l9-15 30-53c7-12 3-27-9-34Z" fill="#4285F4"/></svg>