<svg xmlns="http://www.w3.org/2000/svg" viewBox="0 -0.55 15.4 16.46"><path d="M4.42 3.08c3.75-3.72 8.3-4.7 10.12-2.15 1.82 2.53.22 7.66-3.53 11.38-3.75 3.75-8.3 4.72-10.14 2.15C-.93 11.9.67 6.8 4.42 3.08" fill="#f06321"/><path d="M6.9 1.1c-.4.3-.82.65-1.23 1.04C2.38 5.39 1 9.86 2.63 12.09c1.68 2.23 5.7 1.4 9.07-1.87a12.7 12.7 0 003.53-5.71 5.39 5.39 0 00-.69-3.58c-1.43-1.99-4.52-1.82-7.63.16" fill="#ae282e"/><path d="M11.65 1.5v.09c-.03.47-.3 1.04-.8 1.54-.75.72-1.74 1-2.15.58-.47-.44-.2-1.4.55-2.18C10.02.8 11 .54 11.43.98c.13.14.22.3.22.52M8.78 14.16c-1.76 1.32-3.58 1.99-5.35 1.7.75.04 1.35-.8 1.85-1.9.5-1.12.77-2.17 1.02-3.16.36-1.58.38-2.68.2-2.93-.31-.38-.97-.3-1.75.14-.38.22-.88.08-.3-.63.6-.72 2.95-2.43 3.78-2.7.94-.25 1.98.1 1.63 1.13-.25.74-3.5 9.23-1.08 8.35" fill="#fff"/></svg>