<svg width="32" height="32" viewBox="0 0 32 32" fill="none" xmlns="http://www.w3.org/2000/svg">
<g clip-path="url(#clip0_1_2)">
<path fill-rule="evenodd" clip-rule="evenodd" d="M24.9226 7.07743C25.1088 7.26367 25.1885 7.51613 25.1616 7.75901C25.154 7.8271 25.1381 7.89443 25.1138 7.95934L19.2866 24.6087C19.1737 24.9312 18.8753 25.1521 18.534 25.166C18.1926 25.1799 17.8772 24.984 17.7385 24.6718L14.5353 17.4647L7.32822 14.2615C7.01599 14.1228 6.8201 13.8075 6.83403 13.4661C6.84796 13.1247 7.06887 12.8264 7.39137 12.7135L24.0407 6.88623C24.106 6.86178 24.1737 6.84581 24.2422 6.83832C24.2926 6.83278 24.3431 6.83189 24.3931 6.83549C24.586 6.84928 24.7751 6.92993 24.9226 7.07743ZM21.1619 9.65958L9.9259 13.5922L14.9821 15.8394L21.1619 9.65958ZM16.1606 17.0179L22.3404 10.8381L18.4078 22.0741L16.1606 17.0179Z" fill="white"/>
</g>
<defs>
<clipPath id="clip0_1_2">
<rect width="20" height="20" fill="white" transform="translate(6 6)"/>
</clipPath>
</defs>
</svg>
