<svg width="32" height="32" viewBox="0 0 32 32" fill="none" xmlns="http://www.w3.org/2000/svg">
<path fill-rule="evenodd" clip-rule="evenodd" d="M11.8333 8.5C11.8333 8.03977 11.4602 7.66667 11 7.66667C10.5398 7.66667 10.1667 8.03977 10.1667 8.5V17.7717C8.72898 18.1418 7.66667 19.4468 7.66667 21C7.66667 22.8409 9.15905 24.3333 11 24.3333C12.5649 24.3333 13.8779 23.2549 14.2365 21.8007C16.1767 21.6287 18.0043 20.7808 19.3926 19.3926C20.7808 18.0043 21.6287 16.1767 21.8007 14.2365C23.2549 13.8779 24.3333 12.5649 24.3333 11C24.3333 9.15905 22.8409 7.66667 21 7.66667C19.1591 7.66667 17.6667 9.15905 17.6667 11C17.6667 12.5392 18.7099 13.8347 20.1279 14.2181C19.965 15.7222 19.2938 17.1343 18.2141 18.2141C17.1343 19.2938 15.7222 19.965 14.2181 20.1279C13.9064 18.975 12.9917 18.0698 11.8333 17.7717V8.5ZM12.6667 21C12.6667 20.0795 11.9205 19.3333 11 19.3333C10.0795 19.3333 9.33333 20.0795 9.33333 21C9.33333 21.9205 10.0795 22.6667 11 22.6667C11.9205 22.6667 12.6667 21.9205 12.6667 21ZM21 12.6667C21.9205 12.6667 22.6667 11.9205 22.6667 11C22.6667 10.0795 21.9205 9.33333 21 9.33333C20.0795 9.33333 19.3333 10.0795 19.3333 11C19.3333 11.9205 20.0795 12.6667 21 12.6667Z" fill="white"/>
</svg>
