<svg xmlns="http://www.w3.org/2000/svg" viewBox="0 0 70 70">
  <circle cx="-25.93" cy="41.95" r="29.87" fill="#5f259f" transform="rotate(-77)"/>
  <path fill="#fff" d="M48.43 27.08c0-1.17-1-2.17-2.17-2.17h-4l-9.18-10.52a3.39 3.39 0 0 0-3.5-1l-3.18 1c-.5.17-.67.84-.33 1.17l10.01 9.51H20.9c-.5 0-.83.34-.83.84v1.67c0 1.17 1 2.17 2.17 2.17h2.34v8c0 6.02 3.17 9.52 8.5 9.52 1.68 0 3.01-.17 4.68-.83v5.34c0 1.5 1.17 2.67 2.67 2.67h2.34c.5 0 1-.5 1-1V29.58h3.84c.5 0 .83-.33.83-.83zM37.75 41.43c-1 .5-2.34.67-3.34.67-2.67 0-4-1.34-4-4.34v-8.01h7.34z"/>
</svg>
