<svg viewBox="0 0 22 22" fill="none" xmlns="http://www.w3.org/2000/svg">
<rect y="0.259766" width="21.481" height="21.481" rx="10.7405" fill="white"/>
<path d="M12.1496 7.99889C11.9985 7.84394 11.8228 7.72212 11.6225 7.63342C11.4222 7.54472 11.2079 7.5002 10.9805 7.5002C10.7531 7.5002 10.5389 7.54472 10.3385 7.63342C10.1382 7.72247 9.96354 7.8443 9.81528 7.99889C9.66668 8.15384 9.54932 8.33409 9.46286 8.53962C9.37606 8.74515 9.33301 8.96493 9.33301 9.19825V10.4842C9.33301 10.7178 9.37641 10.9373 9.46286 11.1428C9.54932 11.3483 9.66702 11.5286 9.81528 11.6835C9.96389 11.8385 10.1382 11.9603 10.3385 12.049C10.5389 12.1377 10.7527 12.1822 10.9805 12.1822C11.2083 12.1822 11.4222 12.1377 11.6225 12.049C11.8228 11.9603 11.9985 11.8385 12.1496 11.6835C12.3006 11.5286 12.4194 11.3483 12.5058 11.1428C12.5923 10.9373 12.6357 10.7178 12.6357 10.4842V9.19825C12.6357 8.96493 12.5923 8.74515 12.5058 8.53962C12.419 8.33409 12.3003 8.15384 12.1496 7.99889Z" fill="black"/>
<path d="M16.8697 8.53962C16.7829 8.33409 16.6641 8.15384 16.5134 7.99889C16.3624 7.84394 16.1867 7.72212 15.9864 7.63342C15.786 7.54472 15.5718 7.5002 15.3444 7.5002C15.0968 7.5002 14.8829 7.55114 14.7024 7.65266C14.5218 7.75418 14.3722 7.89132 14.2534 8.06372L13.9489 7.56111H13.0806V9.50174H13.5483V11.7797H13.0806V13.7203H14.81V12.0743C14.9663 12.1409 15.144 12.1744 15.3444 12.1744C15.5718 12.1744 15.786 12.1299 15.9864 12.0412C16.1867 11.9525 16.3624 11.8317 16.5134 11.6796C16.6645 11.5272 16.7832 11.3483 16.8697 11.1428C16.9561 10.9373 16.9995 10.7178 16.9995 10.4842V9.19825C16.9995 8.96494 16.9561 8.74515 16.8697 8.53962Z" fill="black"/>
<path d="M8.43286 7.99889C8.28182 7.84394 8.10614 7.72212 7.9058 7.63342C7.70546 7.54472 7.49123 7.5002 7.2638 7.5002C7.01624 7.5002 6.80236 7.55114 6.62181 7.65266C6.44127 7.75418 6.29162 7.89132 6.17287 8.06372L5.86837 7.56111H5V9.50174H5.46769V11.7797H5V13.7203H6.72945V12.0743C6.88569 12.1409 7.06347 12.1744 7.2638 12.1744C7.49123 12.1744 7.70546 12.1299 7.9058 12.0412C8.10614 11.9525 8.28182 11.8317 8.43286 11.6796C8.5839 11.5272 8.70264 11.3483 8.7891 11.1428C8.87555 10.9373 8.91895 10.7178 8.91895 10.4842V9.19825C8.91895 8.96494 8.87555 8.74515 8.7891 8.53962C8.70264 8.33409 8.58355 8.15384 8.43286 7.99889Z" fill="black"/>
<path d="M12.1496 9.52264C11.9985 9.36769 11.8228 9.24587 11.6225 9.15717C11.4222 9.06848 11.2079 9.02395 10.9805 9.02395C10.7531 9.02395 10.5389 9.06848 10.3385 9.15717C10.1382 9.24622 9.96354 9.36805 9.81528 9.52264C9.66668 9.67759 9.54932 9.85784 9.46286 10.0634C9.37606 10.2689 9.33301 10.4887 9.33301 10.722V12.0079C9.33301 12.2416 9.37641 12.461 9.46286 12.6666C9.54932 12.8721 9.66702 13.0523 9.81528 13.2073C9.96389 13.3622 10.1382 13.4841 10.3385 13.5728C10.5389 13.6614 10.7527 13.706 10.9805 13.706C11.2083 13.706 11.4222 13.6614 11.6225 13.5728C11.8228 13.4841 11.9985 13.3622 12.1496 13.2073C12.3006 13.0523 12.4194 12.8721 12.5058 12.6666C12.5923 12.461 12.6357 12.2416 12.6357 12.0079V10.722C12.6357 10.4887 12.5923 10.2689 12.5058 10.0634C12.419 9.85784 12.3003 9.67759 12.1496 9.52264ZM11.4201 11.5345C11.4201 11.5961 11.4086 11.6542 11.3857 11.7083C11.3628 11.7625 11.3315 11.8102 11.2916 11.8512C11.2517 11.8922 11.2055 11.9242 11.1524 11.9477C11.0996 11.9712 11.043 11.983 10.9829 11.983C10.9229 11.983 10.8663 11.9712 10.8135 11.9477C10.7607 11.9242 10.7146 11.8922 10.6753 11.8512C10.6361 11.8102 10.6052 11.7628 10.5823 11.7083C10.5594 11.6542 10.5479 11.5961 10.5479 11.5345V11.1951C10.5479 11.1334 10.5594 11.0754 10.5823 11.0212C10.6052 10.9671 10.6361 10.9193 10.6753 10.8784C10.7146 10.8374 10.7604 10.8054 10.8135 10.7818C10.8663 10.7583 10.9229 10.7466 10.9829 10.7466C11.043 10.7466 11.0996 10.7583 11.1524 10.7818C11.2052 10.8054 11.2517 10.8374 11.2916 10.8784C11.3315 10.9193 11.3628 10.9667 11.3857 11.0212C11.4086 11.0754 11.4201 11.1334 11.4201 11.1951V11.5345Z" fill="#F56651"/>
<path d="M16.8702 10.0634C16.7833 9.85784 16.6646 9.67759 16.5139 9.52264C16.3629 9.36769 16.1872 9.24587 15.9868 9.15717C15.7865 9.06848 15.5723 9.02395 15.3449 9.02395C15.0973 9.02395 14.8834 9.07489 14.7029 9.17641C14.5223 9.27793 14.3727 9.41507 14.2539 9.58747L13.9494 9.08486H13.0811V11.0255H13.5487V13.3035H13.0811V15.2441H14.8105V13.598C14.9667 13.6647 15.1445 13.6981 15.3449 13.6981C15.5723 13.6981 15.7865 13.6536 15.9868 13.5649C16.1872 13.4762 16.3629 13.3555 16.5139 13.2034C16.6649 13.0509 16.7837 12.8721 16.8702 12.6666C16.9566 12.461 17 12.2416 17 12.0079V10.722C17 10.4887 16.9566 10.2689 16.8702 10.0634ZM15.8233 11.5345C15.8233 11.5961 15.8119 11.6542 15.7889 11.7083C15.766 11.7625 15.7348 11.8102 15.6948 11.8512C15.6549 11.8922 15.6087 11.9242 15.5556 11.9477C15.5028 11.9712 15.4462 11.983 15.3862 11.983C15.3261 11.983 15.2695 11.9712 15.2167 11.9477C15.164 11.9242 15.1178 11.8922 15.0785 11.8512C15.0393 11.8102 15.0084 11.7628 14.9855 11.7083C14.9626 11.6542 14.9511 11.5961 14.9511 11.5345V11.1951C14.9511 11.1334 14.9626 11.0754 14.9855 11.0212C15.0084 10.9671 15.0393 10.9193 15.0785 10.8784C15.1178 10.8374 15.1636 10.8054 15.2167 10.7818C15.2695 10.7583 15.3261 10.7466 15.3862 10.7466C15.4462 10.7466 15.5028 10.7583 15.5556 10.7818C15.6084 10.8054 15.6549 10.8374 15.6948 10.8784C15.7348 10.9193 15.766 10.9667 15.7889 11.0212C15.8119 11.0754 15.8233 11.1334 15.8233 11.1951V11.5345Z" fill="#F56651"/>
<path d="M8.43286 9.52264C8.28182 9.36769 8.10614 9.24587 7.9058 9.15717C7.70546 9.06848 7.49123 9.02395 7.2638 9.02395C7.01624 9.02395 6.80236 9.07489 6.62181 9.17641C6.44127 9.27793 6.29162 9.41507 6.17287 9.58747L5.86872 9.08486H5V11.0255H5.46769V13.3035H5V15.2441H6.72945V13.598C6.88569 13.6647 7.06347 13.6981 7.2638 13.6981C7.49123 13.6981 7.70546 13.6536 7.9058 13.5649C8.10614 13.4762 8.28182 13.3555 8.43286 13.2034C8.5839 13.0509 8.70264 12.8721 8.7891 12.6666C8.87555 12.461 8.91895 12.2416 8.91895 12.0079V10.722C8.91895 10.4887 8.87555 10.2689 8.7891 10.0634C8.70229 9.85784 8.58355 9.67759 8.43286 9.52264ZM7.74226 11.5345C7.74226 11.5961 7.7308 11.6542 7.70789 11.7083C7.68497 11.7625 7.65372 11.8102 7.61379 11.8512C7.57386 11.8922 7.52768 11.9242 7.47456 11.9477C7.42179 11.9712 7.36519 11.983 7.30512 11.983C7.24506 11.983 7.18846 11.9712 7.13568 11.9477C7.08291 11.9242 7.03673 11.8922 6.9975 11.8512C6.95826 11.8102 6.92736 11.7628 6.90444 11.7083C6.88153 11.6542 6.87007 11.5961 6.87007 11.5345V11.1951C6.87007 11.1334 6.88153 11.0754 6.90444 11.0212C6.92736 10.9671 6.95826 10.9193 6.9975 10.8784C7.03673 10.8374 7.08256 10.8054 7.13568 10.7818C7.18846 10.7583 7.24506 10.7466 7.30512 10.7466C7.36519 10.7466 7.42179 10.7583 7.47456 10.7818C7.52734 10.8054 7.57386 10.8374 7.61379 10.8784C7.65372 10.9193 7.68497 10.9667 7.70789 11.0212C7.7308 11.0754 7.74226 11.1334 7.74226 11.1951V11.5345Z" fill="#F56651"/>
</svg>
