<svg width="20" height="15" viewBox="0 0 20 15" fill="none" xmlns="http://www.w3.org/2000/svg">
<path fill-rule="evenodd" clip-rule="evenodd" d="M0 0V15H20V0H0Z" fill="#F7FCFF"/>
<mask id="mask0_1454_2692" style="mask-type:luminance" maskUnits="userSpaceOnUse" x="0" y="0" width="20" height="15">
<path fill-rule="evenodd" clip-rule="evenodd" d="M0 0V15H20V0H0Z" fill="white"/>
</mask>
<g mask="url(#mask0_1454_2692)">
<path fill-rule="evenodd" clip-rule="evenodd" d="M0 0V7.5H20V0H0Z" fill="#E31D1C"/>
<path fill-rule="evenodd" clip-rule="evenodd" d="M5.54277 6.6185C5.54277 6.6185 3.77671 5.9082 3.77671 3.98378C3.77671 2.05935 5.54277 1.37199 5.54277 1.37199C4.68443 1.1547 2.40686 1.34905 2.40686 3.98378C2.40686 6.6185 4.65002 7.11538 5.54277 6.6185ZM5.99525 6.30041L6.50189 5.99455L7.01969 6.30041L6.89297 5.70356L7.3139 5.23272H6.74359L6.50189 4.67541L6.26019 5.23272L5.6889 5.25687L6.11081 5.70356L5.99525 6.30041ZM8.34333 5.9604L7.83669 6.26626L7.95225 5.6694L7.53034 5.22272L8.10163 5.19857L8.34333 4.64126L8.58503 5.19857H9.15534L8.7344 5.6694L8.86113 6.26626L8.34333 5.9604ZM7.05448 3.60619L7.56112 3.30033L8.07893 3.60619L7.9522 3.00934L8.37314 2.5385H7.80282L7.56112 1.98119L7.31943 2.5385L6.74814 2.56265L7.17005 3.00934L7.05448 3.60619ZM5.85613 4.51418L5.34949 4.82004L5.46505 4.22319L5.04314 3.7765L5.61443 3.75235L5.85613 3.19504L6.09783 3.75235H6.66814L6.24721 4.22319L6.37394 4.82004L5.85613 4.51418ZM8.6985 4.79263L9.20514 4.48677L9.72294 4.79263L9.59622 4.19578L10.0172 3.72494H9.44684L9.20514 3.16763L8.96344 3.72494L8.39215 3.74909L8.81406 4.19578L8.6985 4.79263Z" fill="#F1F9FF"/>
</g>
</svg>
