<svg xmlns="http://www.w3.org/2000/svg" viewBox="0 0 27.7 26.4"><linearGradient id="a" gradientUnits="userSpaceOnUse" x1="13.84" y1="20.41" x2="13.84" y2="2.042"><stop offset="0" stop-color="#ffb717"/><stop offset="1" stop-color="#f4d30c"/></linearGradient><path d="M13.1.9c.4-1.2 1-1.2 1.4 0l2.2 6.6c.4 1.2 1.7 2.1 2.9 2.1h7c1.2 0 1.4.6.4 1.3L21.4 15c-1 .7-1.5 2.3-1.1 3.5l2.2 6.6c.4 1.2-.1 1.5-1.1.8l-5.6-4.1c-1-.7-2.6-.7-3.6 0L6.4 26c-1 .7-1.5.4-1.1-.8l2.2-6.6c.4-1.2-.1-2.7-1.1-3.5L.6 11c-1-.7-.8-1.3.4-1.3h7c1.2 0 2.6-1 2.9-2.1L13.1.9z" fill="url(#a)"/></svg>