<svg width="20" height="22" viewBox="0 0 20 22" fill="none" xmlns="http://www.w3.org/2000/svg">
<path fill-rule="evenodd" clip-rule="evenodd" d="M10 0.416668C8.68678 0.416668 7.38642 0.664548 6.17317 1.14616C4.95991 1.62776 3.85752 2.33367 2.92893 3.22356C2.00035 4.11346 1.26375 5.16991 0.761205 6.33262C0.258658 7.49532 0 8.7415 0 10V15.0313C0 15.6667 0.263392 16.2761 0.732233 16.7254C1.20107 17.1747 1.83696 17.4271 2.5 17.4271H4C4.66304 17.4271 5.29893 17.1747 5.76777 16.7254C6.23661 16.2761 6.5 15.6667 6.5 15.0313V11.4375C6.5 10.8021 6.23661 10.1927 5.76777 9.74339C5.29893 9.29409 4.66304 9.04167 4 9.04167H2.06275C2.15182 8.36416 2.33513 7.69964 2.60896 7.06609C3.011 6.13593 3.60028 5.29077 4.34315 4.57885C5.08601 3.86693 5.96793 3.30221 6.93853 2.91693C7.90914 2.53164 8.94942 2.33333 10 2.33333C11.0506 2.33333 12.0909 2.53164 13.0615 2.91693C14.0321 3.30221 14.914 3.86693 15.6569 4.57885C16.3997 5.29077 16.989 6.13593 17.391 7.06609C17.6649 7.69964 17.8482 8.36416 17.9373 9.04167H16C15.337 9.04167 14.7011 9.29409 14.2322 9.74339C13.7634 10.1927 13.5 10.8021 13.5 11.4375V15.0313C13.5 15.6667 13.7634 16.2761 14.2322 16.7254C14.7011 17.1747 15.337 17.4271 16 17.4271H17.9843C17.9291 17.8471 17.7299 18.2403 17.4142 18.5428C17.0391 18.9022 16.5304 19.1042 16 19.1042H10.75C10.1977 19.1042 9.75 19.5332 9.75 20.0625C9.75 20.5918 10.1977 21.0208 10.75 21.0208H16C17.0609 21.0208 18.0783 20.617 18.8284 19.8981C19.5786 19.1792 20 18.2042 20 17.1875V10C20 8.7415 19.7413 7.49532 19.2388 6.33262C18.7362 5.16992 17.9997 4.11346 17.0711 3.22356C16.1425 2.33367 15.0401 1.62776 13.8268 1.14616C12.6136 0.664548 11.3132 0.416668 10 0.416668ZM2 15.0313V10.9583H4C4.13261 10.9583 4.25978 11.0088 4.35355 11.0987C4.44732 11.1885 4.5 11.3104 4.5 11.4375V15.0313C4.5 15.1583 4.44732 15.2802 4.35355 15.3701C4.25978 15.4599 4.13261 15.5104 4 15.5104H2.5C2.36739 15.5104 2.24022 15.4599 2.14645 15.3701C2.05268 15.2802 2 15.1583 2 15.0313ZM16 10.9583H18V15.5104H16C15.8674 15.5104 15.7402 15.4599 15.6464 15.3701C15.5527 15.2802 15.5 15.1583 15.5 15.0313V11.4375C15.5 11.3104 15.5527 11.1885 15.6464 11.0987C15.7402 11.0088 15.8674 10.9583 16 10.9583Z" fill="#40566D"/>
</svg>
