<svg width="20" height="15" viewBox="0 0 20 15" fill="none" xmlns="http://www.w3.org/2000/svg">
<g clip-path="url(#clip0_538_6125)">
<rect width="20" height="15" rx="1" fill="white"/>
<path fill-rule="evenodd" clip-rule="evenodd" d="M0 0H20V15H0V0Z" fill="#E31D1C"/>
<path d="M20 13.75V15H0V13.75H20ZM20 12.5H0V11.25H20V12.5ZM20 10H0V8.75H20V10ZM20 7.5H0V6.25H20V7.5ZM20 5H0V3.75H20V5ZM20 2.5H0V1.25H20V2.5Z" fill="#F7FCFF"/>
<rect width="11.25" height="8.75" fill="#2E42A5"/>
<path d="M2.35841 6.73275H2.78224L2.44923 7.06967L2.57814 7.59994L2.16408 7.30209L1.73537 7.59994L1.8799 7.06967L1.50002 6.73275H1.99709L2.1631 6.30014L2.35841 6.73275ZM4.85841 6.73275H5.28224L4.94923 7.06967L5.07814 7.59994L4.66408 7.30209L4.23537 7.59994L4.3799 7.06967L4.00002 6.73275H4.49709L4.6631 6.30014L4.85841 6.73275ZM7.35841 6.73275H7.78224L7.44923 7.06967L7.57814 7.59994L7.16408 7.30209L6.73537 7.59994L6.8799 7.06967L6.50002 6.73275H6.99709L7.1631 6.30014L7.35841 6.73275ZM9.85841 6.73275H10.2822L9.94923 7.06967L10.0781 7.59994L9.66408 7.30209L9.23537 7.59994L9.3799 7.06967L9.00002 6.73275H9.49709L9.6631 6.30014L9.85841 6.73275ZM3.60841 5.48275H4.03224L3.69923 5.81967L3.82814 6.34994L3.41408 6.05209L2.98537 6.34994L3.1299 5.81967L2.75002 5.48275H3.24709L3.4131 5.05014L3.60841 5.48275ZM6.10841 5.48275H6.53224L6.19923 5.81967L6.32814 6.34994L5.91408 6.05209L5.48537 6.34994L5.6299 5.81967L5.25002 5.48275H5.74709L5.9131 5.05014L6.10841 5.48275ZM8.60841 5.48275H9.03224L8.69923 5.81967L8.82814 6.34994L8.41408 6.05209L7.98537 6.34994L8.1299 5.81967L7.75002 5.48275H8.24709L8.4131 5.05014L8.60841 5.48275ZM2.35841 4.23275H2.78224L2.44923 4.56967L2.57814 5.09994L2.16408 4.80209L1.73537 5.09994L1.8799 4.56967L1.50002 4.23275H1.99709L2.1631 3.80014L2.35841 4.23275ZM4.85841 4.23275H5.28224L4.94923 4.56967L5.07814 5.09994L4.66408 4.80209L4.23537 5.09994L4.3799 4.56967L4.00002 4.23275H4.49709L4.6631 3.80014L4.85841 4.23275ZM7.35841 4.23275H7.78224L7.44923 4.56967L7.57814 5.09994L7.16408 4.80209L6.73537 5.09994L6.8799 4.56967L6.50002 4.23275H6.99709L7.1631 3.80014L7.35841 4.23275ZM9.85841 4.23275H10.2822L9.94923 4.56967L10.0781 5.09994L9.66408 4.80209L9.23537 5.09994L9.3799 4.56967L9.00002 4.23275H9.49709L9.6631 3.80014L9.85841 4.23275ZM3.60841 2.98275H4.03224L3.69923 3.31967L3.82814 3.84994L3.41408 3.55209L2.98537 3.84994L3.1299 3.31967L2.75002 2.98275H3.24709L3.4131 2.55014L3.60841 2.98275ZM6.10841 2.98275H6.53224L6.19923 3.31967L6.32814 3.84994L5.91408 3.55209L5.48537 3.84994L5.6299 3.31967L5.25002 2.98275H5.74709L5.9131 2.55014L6.10841 2.98275ZM8.60841 2.98275H9.03224L8.69923 3.31967L8.82814 3.84994L8.41408 3.55209L7.98537 3.84994L8.1299 3.31967L7.75002 2.98275H8.24709L8.4131 2.55014L8.60841 2.98275ZM2.35841 1.73275H2.78224L2.44923 2.06967L2.57814 2.59994L2.16408 2.30209L1.73537 2.59994L1.8799 2.06967L1.50002 1.73275H1.99709L2.1631 1.30014L2.35841 1.73275ZM4.85841 1.73275H5.28224L4.94923 2.06967L5.07814 2.59994L4.66408 2.30209L4.23537 2.59994L4.3799 2.06967L4.00002 1.73275H4.49709L4.6631 1.30014L4.85841 1.73275ZM7.35841 1.73275H7.78224L7.44923 2.06967L7.57814 2.59994L7.16408 2.30209L6.73537 2.59994L6.8799 2.06967L6.50002 1.73275H6.99709L7.1631 1.30014L7.35841 1.73275ZM9.85841 1.73275H10.2822L9.94923 2.06967L10.0781 2.59994L9.66408 2.30209L9.23537 2.59994L9.3799 2.06967L9.00002 1.73275H9.49709L9.6631 1.30014L9.85841 1.73275Z" fill="#F7FCFF"/>
</g>
<rect x="0.5" y="0.5" width="19" height="14" rx="0.5" stroke="black" stroke-opacity="0.1"/>
<defs>
<clipPath id="clip0_538_6125">
<rect width="20" height="15" rx="1" fill="white"/>
</clipPath>
</defs>
</svg>
