<svg width="32" height="32" viewBox="0 0 32 32" fill="none" xmlns="http://www.w3.org/2000/svg">
<path fill-rule="evenodd" clip-rule="evenodd" d="M21.7812 8.29167H10.2188L10.2155 8.29168C9.89962 8.29292 9.5927 8.39668 9.34089 8.58735C9.08908 8.77802 8.90589 9.04556 8.81904 9.34923L7.70409 13.2523C7.68012 13.3294 7.66704 13.4114 7.66668 13.4963L7.66667 13.5V14.75C7.66667 15.6341 8.01786 16.4819 8.64298 17.107C8.73005 17.1941 8.82145 17.2758 8.91667 17.3521V22.2495C8.91667 22.6363 9.07031 23.0072 9.3438 23.2807C9.61729 23.5542 9.98823 23.7078 10.375 23.7078H21.625C22.0117 23.7078 22.3827 23.5542 22.6562 23.2807C22.9297 23.0072 23.0833 22.6363 23.0833 22.2495V17.3521C23.0931 17.3443 23.1028 17.3364 23.1125 17.3284C23.1972 17.259 23.2789 17.1852 23.357 17.107C23.9822 16.4819 24.3333 15.6341 24.3333 14.75V13.5C24.3333 13.4981 24.3333 13.4963 24.3333 13.4944C24.3327 13.4106 24.3198 13.3296 24.2962 13.2534L23.1832 9.34896C23.0962 9.04438 22.9122 8.77646 22.6593 8.5857C22.4063 8.39494 22.0981 8.29173 21.7812 8.29167ZM22.6667 14.3333H19.3333V14.75C19.3333 15.192 19.5089 15.6159 19.8215 15.9285C19.8606 15.9676 19.9013 16.0045 19.9438 16.0393C20.2403 16.2823 20.6133 16.4167 21 16.4167C21.2627 16.4167 21.519 16.3547 21.7493 16.2388C21.8021 16.199 21.8597 16.1655 21.921 16.1391L21.9247 16.1367C22.0153 16.0763 22.1003 16.0067 22.1785 15.9285C22.4911 15.6159 22.6667 15.192 22.6667 14.75V14.3333ZM22.3959 12.6667L21.6239 9.95833H10.3784L9.60473 12.6667H22.3959ZM12.6667 14.3333H9.33333V14.75C9.33333 15.192 9.50893 15.6159 9.82149 15.9285C9.90068 16.0077 9.987 16.0781 10.079 16.1391C10.1404 16.1655 10.1979 16.199 10.2507 16.2388C10.481 16.3547 10.7373 16.4167 11 16.4167C11.442 16.4167 11.866 16.2411 12.1785 15.9285C12.4911 15.6159 12.6667 15.192 12.6667 14.75V14.3333ZM14.3333 14.3333H17.6667V14.75C17.6667 15.192 17.4911 15.6159 17.1785 15.9285C16.8659 16.2411 16.442 16.4167 16 16.4167C15.558 16.4167 15.1341 16.2411 14.8215 15.9285C14.5089 15.6159 14.3333 15.192 14.3333 14.75V14.3333ZM18.5 16.9548C18.4541 17.0068 18.4064 17.0577 18.357 17.107C17.7319 17.7322 16.8841 18.0833 16 18.0833C15.1159 18.0833 14.2681 17.7322 13.643 17.107C13.5936 17.0577 13.5459 17.0068 13.5 16.9548C13.4541 17.0068 13.4064 17.0577 13.357 17.107C12.7319 17.7322 11.8841 18.0833 11 18.0833C10.86 18.0833 10.7208 18.0745 10.5833 18.0572V22.0412H21.4167V18.0572C21.2792 18.0745 21.1401 18.0833 21 18.0833C20.1159 18.0833 19.2681 17.7322 18.643 17.107C18.5942 17.0582 18.547 17.008 18.5015 16.9565L18.5 16.9548Z" fill="white"/>
</svg>
