<svg width="100%" height="auto" viewBox="0 0 100 33" fill="none" xmlns="http://www.w3.org/2000/svg"><path d="M51.718 10.55c-.057 4.597 4.008 7.162 7.071 8.687 3.147 1.565 4.204 2.569 4.192 3.968-.024 2.142-2.51 3.087-4.837 3.124-4.06.064-6.42-1.12-8.297-2.016l-1.462 6.993c1.882.887 5.369 1.66 8.984 1.694 8.486 0 14.038-4.28 14.068-10.918.033-8.424-11.402-8.89-11.323-12.655.027-1.142 1.093-2.36 3.429-2.67 1.156-.156 4.348-.276 7.966 1.427l1.42-6.766C70.985.694 68.483 0 65.37 0c-7.99 0-13.608 4.339-13.653 10.55ZM86.578.583c-1.55 0-2.856.924-3.439 2.341L71.017 32.503h8.48l1.687-4.766h10.363l.979 4.766H100L93.478.583h-6.9Zm1.185 8.623 2.448 11.986h-6.703l4.255-11.986ZM41.436.583l-6.684 31.92h8.08L49.513.583h-8.077Zm-11.954 0L21.07 22.309 17.669 3.836c-.4-2.062-1.976-3.253-3.727-3.253H.192L0 1.51c2.823.626 6.03 1.635 7.972 2.716 1.19.66 1.529 1.236 1.92 2.804l6.443 25.473h8.54L37.968.583h-8.486Z" fill="#1334CB"/></svg>