<svg width="100%" height="auto" viewBox="0 0 12 12" fill="none" xmlns="http://www.w3.org/2000/svg"><g clip-path="url(#clip0_1513_4697)"><path d="M12 12V10.0985H10.5523L9.80688 9.27432L9.05784 10.0985H4.28472V6.25728H2.74416L4.65504 1.93272H6.498L7.15584 3.41424V1.93272H9.43704L9.83304 3.0492L10.2317 1.93272H12V0H0V12H12ZM10.7962 9.61752H12L10.4076 7.92888L12 6.25944H10.8154L9.83184 7.33416L8.85792 6.25944H7.65384L9.23688 7.93848L7.65384 9.61752H8.82456L9.81288 8.5332L10.7964 9.61752H10.7962ZM11.0777 7.93032L11.9998 8.91144V6.95736L11.0777 7.93032ZM5.71056 8.8404V8.31744H7.6056V7.55952H5.71056V7.03656H7.6536V6.25944H4.79424V9.61776H7.6536V8.84064H5.71056V8.8404ZM11.093 5.772H11.9998V2.41368H10.5893L9.83592 4.50528L9.0876 2.41368H7.65312V5.772H8.55984V3.4212L9.42336 5.772H10.2293L11.0928 3.4164V5.772H11.093ZM6.62184 5.772H7.65336L6.17088 2.41368H4.99056L3.50808 5.772H4.5156L4.794 5.10024H6.33888L6.62184 5.772ZM6.02208 4.34712H5.11056L5.56632 3.2484L6.02208 4.34712Z" fill="#006FCF"/></g><defs><clipPath id="clip0_1513_4697"><rect width="12" height="12" fill="white"/></clipPath></defs></svg>