<svg width="100%" height="auto" viewBox="0 0 295 80" xmlns="http://www.w3.org/2000/svg"><path fill="none" d="M-1 -1H581V401H-1z"/><g><path d="m148.316,23.713c-2.247,6.269 -8.44,5.531 -8.44,5.531l-8.456,0.003l3.339,-12.422c0,0 5.351,0.028 8.887,0.028c4.327,0 5.898,3.437 4.67,6.86l0,0zm17.758,-5.805c1.373,-10.872 -6.912,-15.409 -17.256,-15.409l-27.178,0l-16.042,58.471l17.27,0l4.856,-18.027l13.76,0.086c-0.001,-0.003 21.307,0.9 24.59,-25.121m-98.657,0.58l15.752,0l-6.488,24.96c0,0 -1.617,5.564 3.589,5.994c4.112,0.34 7.173,-4.567 8.177,-7.893c1.317,-4.366 6.438,-23.063 6.438,-23.063l16.227,0l-12.349,42.482l-14.169,0l1.742,-6.068c0,0 -7.229,8.813 -17.969,7.758c-9.546,-0.938 -10.369,-7.862 -8.715,-16.502c0.811,-4.239 7.765,-27.668 7.765,-27.668" fill="#2E3187"/><path d="m180.594,52.315c-2.697,0.687 -5.97,1.057 -6.619,-1.395c-1.781,-6.719 13.947,-8.686 13.947,-8.686c0.107,6.122 -5.256,9.554 -7.328,10.081l0,0zm23.795,-12.296c2.076,-7.065 4.697,-13.758 2.586,-17.466c-3.232,-5.677 -9.078,-6.176 -17.627,-6.176c-9.444,0 -21.106,1.795 -24.908,14.355l15.728,0c0,0 1.433,-4.731 7.335,-4.433c5.225,0.264 4.938,3.859 3.014,5.845c-3.377,3.483 -12.703,1.551 -23.029,5.135c-9.023,3.13 -12.182,14.998 -10.223,19.733c1.899,4.591 5.438,5.177 10.211,5.646c7.668,0.754 13.545,-3.521 16.281,-6.028c0,2.785 0.071,4.341 0.071,4.341l16.549,0l-0.041,-1.557c0,0 -1.474,-0.391 -1.309,-2.463c0.118,-1.518 2.977,-8.815 5.362,-16.932m-159.211,-16.439c-2.233,5.173 -9.157,4.584 -9.157,4.584l-8.061,-0.037l2.943,-10.955c0,0 7.212,0.027 10.748,0.027c3.786,0 4.969,3.041 3.527,6.381zm18.321,-7.466c1.372,-10.871 -8.192,-13.615 -18.536,-13.615l-27.178,0l-16.043,58.471l17.27,0l5.392,-19.854l9.688,0.08c0,0 3.998,-0.232 4.076,3.521c0.085,4.005 -2.968,11.359 -2.77,16.251l17.742,0l-0.04,-1.557c0,0 -1.474,-0.392 -1.31,-2.464c0.068,-0.86 1.02,-3.588 2.266,-7.268c0.75,-1.621 1.884,-5.469 1.779,-8.602c-0.131,-3.91 -2.584,-5.725 -6.123,-6.995c11.03,-2.581 13.787,-17.968 13.787,-17.968m148.384,2.374l16.043,0l0,25.49l13.877,-25.49l14.726,0l-29.685,51.533c0,0 -2.756,4.322 -6.176,6.609c-2.809,1.881 -6.26,1.795 -7.314,1.871c-5.864,-0.051 -12.938,-0.066 -12.938,-0.066l3.412,-12.283l5.521,-0.01c0,0 2.525,-0.258 3.502,-1.505c0.931,-1.187 1.404,-2.374 1.404,-4.116c0.001,-2.612 -2.374,-42.033 -2.372,-42.033" fill="#2E3187"/><path d="m277.108,8.673l-18.523,64.434l34.673,-32.218l-16.15,-32.216" fill="#278043"/><path d="m265.234,8.673l-18.523,64.434l34.672,-32.218l-16.149,-32.216" fill="#F06019"/></g></svg>
