<svg width="32" height="32" viewBox="0 0 32 32" fill="none" xmlns="http://www.w3.org/2000/svg">
<path fill-rule="evenodd" clip-rule="evenodd" d="M12.3529 8.50002C11.7826 8.49739 11.2892 8.89657 11.1727 9.45489L8.52573 22.1408C8.37053 22.8846 8.93693 23.5835 9.69674 23.5859L10.1885 23.5874C10.4935 23.5883 10.7874 23.4731 11.0105 23.2652L14.1047 20.3805L13.7526 22.1556C13.6052 22.8992 14.1756 23.5915 14.9337 23.589L15.1248 23.5884C15.4122 23.5874 15.6897 23.4834 15.9069 23.2951L22.4667 17.6079C22.8974 17.2346 23.006 16.6098 22.7267 16.113L18.7902 9.11282C18.5777 8.73489 18.1778 8.501 17.7442 8.501H17.5477C16.9838 8.501 16.496 8.89362 16.3755 9.44448L15.696 12.5494L13.4222 9.04689C13.202 8.70766 12.8257 8.50218 12.4212 8.50033L12.3529 8.50002ZM16.1902 16.2488L12.5572 10.6529L10.2302 21.8051L16.1902 16.2488ZM16.921 14.4363L17.7149 15.6591C18.032 16.1476 17.9526 16.7932 17.5267 17.1903L16.1057 18.5149L15.5094 21.5222L21.1721 16.6128L17.769 10.561L16.921 14.4363Z" fill="white"/>
</svg>
